# xmcd
#
# Track frame offsets: 
#        150
#        10697
#        21417
#        37637
#        51458
#        62607
#        74537
#        87903
#        99968
#        112412
#        123397
#        134493
#        154125
#        165657
#        175382
#        197067
#        212834
#        231941
#        247913
#        265840
#
# Disc length: 3768 seconds
#
# Revision: 0
# Processed by: cddbd v1.5.2PL0 Copyright (c) Steve Scherf et al.
# Submitted via: ExactAudioCopy v0.99pb5
#
DISCID=1b0eb614
DTITLE=Aretha Franklin  - 100 Hits Legends - CD2
DYEAR=1900
DGENRE=
TTITLE0=01 Think
TTITLE1=02 The House That Jack Built
TTITLE2=03 I Say A Little Prayer
TTITLE3=04 Hello Sunshine
TTITLE4=05 You Send Me
TTITLE5=06 Soul Serenade
TTITLE6=07 Groovin
TTITLE7=08 Satisfaction
TTITLE8=09 See Saw
TTITLE9=10 Since You've Been Gone
TTITLE10=11 Come Back Baby
TTITLE11=12 You Are My Sunshine
TTITLE12=13 I Take What I Want
TTITLE13=14 Money Won't Change You
TTITLE14=15 Night Time Is Right Time
TTITLE15=16 That's My Life
TTITLE16=17 Ain't No Way
TTITLE17=18 My Song
TTITLE18=19 Good To Me As I Am To You
TTITLE19=20 People get Ready
EXTD=
EXTT0=
EXTT1=
EXTT2=
EXTT3=
EXTT4=
EXTT5=
EXTT6=
EXTT7=
EXTT8=
EXTT9=
EXTT10=
EXTT11=
EXTT12=
EXTT13=
EXTT14=
EXTT15=
EXTT16=
EXTT17=
EXTT18=
EXTT19=
PLAYORDER=
